<svg width="24" height="25" viewBox="0 0 24 25" fill="none" xmlns="http://www.w3.org/2000/svg">
<mask id="mask0_3175_7842" style="mask-type:alpha" maskUnits="userSpaceOnUse" x="0" y="0" width="24" height="25">
<rect y="0.5" width="24" height="24" fill="#D9D9D9"/>
</mask>
<g mask="url(#mask0_3175_7842)">
<path d="M12 14.5C11.7167 14.5 11.4792 14.4042 11.2875 14.2125C11.0958 14.0208 11 13.7833 11 13.5C11 13.2167 11.0958 12.9792 11.2875 12.7875C11.4792 12.5958 11.7167 12.5 12 12.5C12.2833 12.5 12.5208 12.5958 12.7125 12.7875C12.9042 12.9792 13 13.2167 13 13.5C13 13.7833 12.9042 14.0208 12.7125 14.2125C12.5208 14.4042 12.2833 14.5 12 14.5ZM8 14.5C7.71667 14.5 7.47917 14.4042 7.2875 14.2125C7.09583 14.0208 7 13.7833 7 13.5C7 13.2167 7.09583 12.9792 7.2875 12.7875C7.47917 12.5958 7.71667 12.5 8 12.5C8.28333 12.5 8.52083 12.5958 8.7125 12.7875C8.90417 12.9792 9 13.2167 9 13.5C9 13.7833 8.90417 14.0208 8.7125 14.2125C8.52083 14.4042 8.28333 14.5 8 14.5ZM16 14.5C15.7167 14.5 15.4792 14.4042 15.2875 14.2125C15.0958 14.0208 15 13.7833 15 13.5C15 13.2167 15.0958 12.9792 15.2875 12.7875C15.4792 12.5958 15.7167 12.5 16 12.5C16.2833 12.5 16.5208 12.5958 16.7125 12.7875C16.9042 12.9792 17 13.2167 17 13.5C17 13.7833 16.9042 14.0208 16.7125 14.2125C16.5208 14.4042 16.2833 14.5 16 14.5ZM12 18.5C11.7167 18.5 11.4792 18.4042 11.2875 18.2125C11.0958 18.0208 11 17.7833 11 17.5C11 17.2167 11.0958 16.9792 11.2875 16.7875C11.4792 16.5958 11.7167 16.5 12 16.5C12.2833 16.5 12.5208 16.5958 12.7125 16.7875C12.9042 16.9792 13 17.2167 13 17.5C13 17.7833 12.9042 18.0208 12.7125 18.2125C12.5208 18.4042 12.2833 18.5 12 18.5ZM8 18.5C7.71667 18.5 7.47917 18.4042 7.2875 18.2125C7.09583 18.0208 7 17.7833 7 17.5C7 17.2167 7.09583 16.9792 7.2875 16.7875C7.47917 16.5958 7.71667 16.5 8 16.5C8.28333 16.5 8.52083 16.5958 8.7125 16.7875C8.90417 16.9792 9 17.2167 9 17.5C9 17.7833 8.90417 18.0208 8.7125 18.2125C8.52083 18.4042 8.28333 18.5 8 18.5ZM16 18.5C15.7167 18.5 15.4792 18.4042 15.2875 18.2125C15.0958 18.0208 15 17.7833 15 17.5C15 17.2167 15.0958 16.9792 15.2875 16.7875C15.4792 16.5958 15.7167 16.5 16 16.5C16.2833 16.5 16.5208 16.5958 16.7125 16.7875C16.9042 16.9792 17 17.2167 17 17.5C17 17.7833 16.9042 18.0208 16.7125 18.2125C16.5208 18.4042 16.2833 18.5 16 18.5ZM5 22.5C4.45 22.5 3.97917 22.3042 3.5875 21.9125C3.19583 21.5208 3 21.05 3 20.5V6.5C3 5.95 3.19583 5.47917 3.5875 5.0875C3.97917 4.69583 4.45 4.5 5 4.5H6V2.5H8V4.5H16V2.5H18V4.5H19C19.55 4.5 20.0208 4.69583 20.4125 5.0875C20.8042 5.47917 21 5.95 21 6.5V20.5C21 21.05 20.8042 21.5208 20.4125 21.9125C20.0208 22.3042 19.55 22.5 19 22.5H5ZM5 20.5H19V10.5H5V20.5Z" fill="#333F48"/>
</g>
</svg>
