<?xml version="1.0" standalone="no"?>
<!DOCTYPE svg PUBLIC "-//W3C//DTD SVG 20010904//EN"
 "http://www.w3.org/TR/2001/REC-SVG-20010904/DTD/svg10.dtd">
<svg version="1.0" xmlns="http://www.w3.org/2000/svg"
 width="512.000000pt" height="512.000000pt" viewBox="0 0 512.000000 512.000000"
 preserveAspectRatio="xMidYMid meet">

<g transform="translate(0.000000,512.000000) scale(0.100000,-0.100000)"
fill="#000000" stroke="none">
<path d="M2330 5110 c-891 -80 -1694 -640 -2079 -1450 -261 -550 -319 -1165
-166 -1749 48 -179 92 -296 181 -477 253 -518 676 -936 1194 -1183 550 -261
1165 -319 1749 -166 331 88 654 248 929 462 721 564 1091 1494 952 2398 -41
264 -113 491 -236 741 -363 741 -1066 1264 -1879 1399 -198 32 -449 42 -645
25z m550 -355 c716 -107 1341 -560 1667 -1210 195 -388 271 -863 207 -1305
-102 -711 -559 -1341 -1209 -1667 -388 -195 -863 -271 -1305 -207 -711 102
-1341 559 -1667 1209 -195 388 -271 863 -207 1305 102 711 559 1341 1209 1667
226 114 524 198 790 222 130 13 382 5 515 -14z"/>
<path d="M1179 2721 c-102 -32 -149 -150 -97 -243 12 -21 38 -49 58 -61 l35
-22 1385 0 1385 0 35 22 c104 65 104 221 0 286 l-35 22 -1370 2 c-753 1 -1382
-2 -1396 -6z"/>
</g>
</svg>
