<svg width="173" height="40" viewBox="0 0 173 40" fill="none" xmlns="http://www.w3.org/2000/svg">
<circle cx="20" cy="20" r="20" fill="#BF5700"/>
<circle cx="20" cy="20" r="15.5" stroke="white" stroke-width="3"/>
<rect x="18" y="10" width="4" height="20" fill="white"/>
<rect x="10" y="22" width="4" height="20" transform="rotate(-90 10 22)" fill="white"/>
<path d="M56.4814 4.20312H58.6787V12.7549C58.6787 13.7275 58.4678 14.542 58.0459 15.1982C57.624 15.8545 57.0498 16.3496 56.3232 16.6836C55.6025 17.0117 54.7969 17.1758 53.9062 17.1758C52.9863 17.1758 52.166 17.0117 51.4453 16.6836C50.7246 16.3496 50.1562 15.8545 49.7402 15.1982C49.3301 14.542 49.125 13.7275 49.125 12.7549V4.20312H51.3223V12.7549C51.3223 13.3701 51.4277 13.877 51.6387 14.2754C51.8496 14.668 52.1484 14.958 52.5352 15.1455C52.9219 15.333 53.3789 15.4268 53.9062 15.4268C54.4336 15.4268 54.8877 15.333 55.2686 15.1455C55.6553 14.958 55.9541 14.668 56.165 14.2754C56.376 13.877 56.4814 13.3701 56.4814 12.7549V4.20312ZM66.3428 4.20312V17H64.1543V4.20312H66.3428ZM70.3594 4.20312V5.96094H60.1729V4.20312H70.3594ZM76.1074 4.20312H80.6338C81.6064 4.20312 82.4355 4.34961 83.1211 4.64258C83.8066 4.93555 84.3311 5.36914 84.6943 5.94336C85.0635 6.51172 85.248 7.21484 85.248 8.05273C85.248 8.69141 85.1309 9.25391 84.8965 9.74023C84.6621 10.2266 84.3311 10.6367 83.9033 10.9707C83.4756 11.2988 82.9658 11.5537 82.374 11.7354L81.7061 12.0605H77.6367L77.6191 10.3115H80.6689C81.1963 10.3115 81.6357 10.2178 81.9873 10.0303C82.3389 9.84277 82.6025 9.58789 82.7783 9.26562C82.96 8.9375 83.0508 8.56836 83.0508 8.1582C83.0508 7.71289 82.9629 7.32617 82.7871 6.99805C82.6172 6.66406 82.3535 6.40918 81.9961 6.2334C81.6387 6.05176 81.1846 5.96094 80.6338 5.96094H78.3135V17H76.1074V4.20312ZM83.4111 17L80.4053 11.252L82.7168 11.2432L85.7666 16.8857V17H83.4111ZM91.4268 17.1758C90.7236 17.1758 90.0879 17.0615 89.5195 16.833C88.957 16.5986 88.4766 16.2734 88.0781 15.8574C87.6855 15.4414 87.3838 14.9521 87.1729 14.3896C86.9619 13.8271 86.8564 13.2207 86.8564 12.5703V12.2188C86.8564 11.4746 86.9648 10.8008 87.1816 10.1973C87.3984 9.59375 87.7002 9.07812 88.0869 8.65039C88.4736 8.2168 88.9307 7.88574 89.458 7.65723C89.9854 7.42871 90.5566 7.31445 91.1719 7.31445C91.8516 7.31445 92.4463 7.42871 92.9561 7.65723C93.4658 7.88574 93.8877 8.20801 94.2217 8.62402C94.5615 9.03418 94.8135 9.52344 94.9775 10.0918C95.1475 10.6602 95.2324 11.2871 95.2324 11.9727V12.8779H87.8848V11.3574H93.1406V11.1904C93.1289 10.8096 93.0527 10.4521 92.9121 10.1182C92.7773 9.78418 92.5693 9.51465 92.2881 9.30957C92.0068 9.10449 91.6318 9.00195 91.1631 9.00195C90.8115 9.00195 90.498 9.07812 90.2227 9.23047C89.9531 9.37695 89.7275 9.59082 89.5459 9.87207C89.3643 10.1533 89.2236 10.4932 89.124 10.8916C89.0303 11.2842 88.9834 11.7266 88.9834 12.2188V12.5703C88.9834 12.9863 89.0391 13.373 89.1504 13.7305C89.2676 14.082 89.4375 14.3896 89.6602 14.6533C89.8828 14.917 90.1523 15.125 90.4688 15.2773C90.7852 15.4238 91.1455 15.4971 91.5498 15.4971C92.0596 15.4971 92.5137 15.3945 92.9121 15.1895C93.3105 14.9844 93.6562 14.6943 93.9492 14.3193L95.0654 15.4004C94.8604 15.6992 94.5938 15.9863 94.2656 16.2617C93.9375 16.5312 93.5361 16.751 93.0615 16.9209C92.5928 17.0908 92.0479 17.1758 91.4268 17.1758ZM102.976 7.49023H104.9V16.7363C104.9 17.5918 104.719 18.3184 104.355 18.916C103.992 19.5137 103.485 19.9678 102.835 20.2783C102.185 20.5947 101.432 20.7529 100.576 20.7529C100.213 20.7529 99.8086 20.7002 99.3633 20.5947C98.9238 20.4893 98.4961 20.3193 98.0801 20.085C97.6699 19.8564 97.3271 19.5547 97.0518 19.1797L98.0449 17.9316C98.3848 18.3359 98.7598 18.6318 99.1699 18.8193C99.5801 19.0068 100.011 19.1006 100.462 19.1006C100.948 19.1006 101.361 19.0098 101.701 18.8281C102.047 18.6523 102.313 18.3916 102.501 18.0459C102.688 17.7002 102.782 17.2783 102.782 16.7803V9.64355L102.976 7.49023ZM96.5156 12.3506V12.166C96.5156 11.4453 96.6035 10.7891 96.7793 10.1973C96.9551 9.59961 97.207 9.08691 97.5352 8.65918C97.8633 8.22559 98.2617 7.89453 98.7305 7.66602C99.1992 7.43164 99.7295 7.31445 100.321 7.31445C100.937 7.31445 101.461 7.42578 101.895 7.64844C102.334 7.87109 102.7 8.19043 102.993 8.60645C103.286 9.0166 103.515 9.50879 103.679 10.083C103.849 10.6514 103.975 11.2842 104.057 11.9814V12.5703C103.98 13.25 103.852 13.8711 103.67 14.4336C103.488 14.9961 103.248 15.4824 102.949 15.8926C102.65 16.3027 102.281 16.6191 101.842 16.8418C101.408 17.0645 100.896 17.1758 100.304 17.1758C99.7236 17.1758 99.1992 17.0557 98.7305 16.8154C98.2676 16.5752 97.8691 16.2383 97.5352 15.8047C97.207 15.3711 96.9551 14.8613 96.7793 14.2754C96.6035 13.6836 96.5156 13.042 96.5156 12.3506ZM98.6338 12.166V12.3506C98.6338 12.7842 98.6748 13.1885 98.7568 13.5635C98.8447 13.9385 98.9766 14.2695 99.1523 14.5566C99.334 14.8379 99.5625 15.0605 99.8379 15.2246C100.119 15.3828 100.45 15.4619 100.831 15.4619C101.329 15.4619 101.736 15.3564 102.053 15.1455C102.375 14.9346 102.621 14.6504 102.791 14.293C102.967 13.9297 103.09 13.5254 103.16 13.0801V11.4893C103.125 11.1436 103.052 10.8213 102.94 10.5225C102.835 10.2236 102.691 9.96289 102.51 9.74023C102.328 9.51172 102.1 9.33594 101.824 9.21289C101.549 9.08398 101.224 9.01953 100.849 9.01953C100.468 9.01953 100.137 9.10156 99.8555 9.26562C99.5742 9.42969 99.3428 9.65527 99.1611 9.94238C98.9854 10.2295 98.8535 10.5635 98.7656 10.9443C98.6777 11.3252 98.6338 11.7324 98.6338 12.166ZM109.365 7.49023V17H107.238V7.49023H109.365ZM107.098 4.99414C107.098 4.67187 107.203 4.40527 107.414 4.19434C107.631 3.97754 107.93 3.86914 108.311 3.86914C108.686 3.86914 108.981 3.97754 109.198 4.19434C109.415 4.40527 109.523 4.67187 109.523 4.99414C109.523 5.31055 109.415 5.57422 109.198 5.78516C108.981 5.99609 108.686 6.10156 108.311 6.10156C107.93 6.10156 107.631 5.99609 107.414 5.78516C107.203 5.57422 107.098 5.31055 107.098 4.99414ZM117.021 14.4248C117.021 14.2139 116.968 14.0234 116.862 13.8535C116.757 13.6777 116.555 13.5195 116.256 13.3789C115.963 13.2383 115.529 13.1094 114.955 12.9922C114.451 12.8809 113.988 12.749 113.566 12.5967C113.15 12.4385 112.793 12.248 112.494 12.0254C112.195 11.8027 111.964 11.5391 111.8 11.2344C111.636 10.9297 111.554 10.5781 111.554 10.1797C111.554 9.79297 111.639 9.42676 111.809 9.08105C111.979 8.73535 112.222 8.43066 112.538 8.16699C112.854 7.90332 113.238 7.69531 113.689 7.54297C114.146 7.39063 114.656 7.31445 115.219 7.31445C116.016 7.31445 116.698 7.44922 117.267 7.71875C117.841 7.98242 118.28 8.34277 118.585 8.7998C118.89 9.25098 119.042 9.76074 119.042 10.3291H116.924C116.924 10.0771 116.859 9.84277 116.73 9.62598C116.607 9.40332 116.42 9.22461 116.168 9.08984C115.916 8.94922 115.6 8.87891 115.219 8.87891C114.855 8.87891 114.554 8.9375 114.313 9.05469C114.079 9.16602 113.903 9.3125 113.786 9.49414C113.675 9.67578 113.619 9.875 113.619 10.0918C113.619 10.25 113.648 10.3936 113.707 10.5225C113.771 10.6455 113.877 10.7598 114.023 10.8652C114.17 10.9648 114.369 11.0586 114.621 11.1465C114.879 11.2344 115.201 11.3193 115.588 11.4014C116.314 11.5537 116.938 11.75 117.46 11.9902C117.987 12.2246 118.392 12.5293 118.673 12.9043C118.954 13.2734 119.095 13.7422 119.095 14.3105C119.095 14.7324 119.004 15.1191 118.822 15.4707C118.646 15.8164 118.389 16.1182 118.049 16.376C117.709 16.6279 117.302 16.8242 116.827 16.9648C116.358 17.1055 115.831 17.1758 115.245 17.1758C114.384 17.1758 113.654 17.0234 113.057 16.7188C112.459 16.4082 112.005 16.0127 111.694 15.5322C111.39 15.0459 111.237 14.542 111.237 14.0205H113.285C113.309 14.4131 113.417 14.7266 113.61 14.9609C113.81 15.1895 114.056 15.3564 114.349 15.4619C114.647 15.5615 114.955 15.6113 115.271 15.6113C115.652 15.6113 115.972 15.5615 116.229 15.4619C116.487 15.3564 116.684 15.2158 116.818 15.04C116.953 14.8584 117.021 14.6533 117.021 14.4248ZM125.309 7.49023V9.03711H119.947V7.49023H125.309ZM121.494 5.16113H123.612V14.3721C123.612 14.665 123.653 14.8906 123.735 15.0488C123.823 15.2012 123.943 15.3037 124.096 15.3564C124.248 15.4092 124.427 15.4355 124.632 15.4355C124.778 15.4355 124.919 15.4268 125.054 15.4092C125.188 15.3916 125.297 15.374 125.379 15.3564L125.388 16.9736C125.212 17.0264 125.007 17.0732 124.772 17.1143C124.544 17.1553 124.28 17.1758 123.981 17.1758C123.495 17.1758 123.064 17.0908 122.689 16.9209C122.314 16.7451 122.021 16.4609 121.811 16.0684C121.6 15.6758 121.494 15.1543 121.494 14.5039V5.16113ZM129.07 9.30078V17H126.952V7.49023H128.974L129.07 9.30078ZM131.979 7.42871L131.962 9.39746C131.833 9.37402 131.692 9.35645 131.54 9.34473C131.394 9.33301 131.247 9.32715 131.101 9.32715C130.737 9.32715 130.418 9.37988 130.143 9.48535C129.867 9.58496 129.636 9.73145 129.448 9.9248C129.267 10.1123 129.126 10.3408 129.026 10.6104C128.927 10.8799 128.868 11.1816 128.851 11.5156L128.367 11.5508C128.367 10.9531 128.426 10.3994 128.543 9.88965C128.66 9.37988 128.836 8.93164 129.07 8.54492C129.311 8.1582 129.609 7.85645 129.967 7.63965C130.33 7.42285 130.749 7.31445 131.224 7.31445C131.353 7.31445 131.49 7.32617 131.637 7.34961C131.789 7.37305 131.903 7.39941 131.979 7.42871ZM138.352 15.0928V10.5576C138.352 10.2178 138.29 9.9248 138.167 9.67871C138.044 9.43262 137.856 9.24219 137.604 9.10742C137.358 8.97266 137.048 8.90527 136.673 8.90527C136.327 8.90527 136.028 8.96387 135.776 9.08105C135.524 9.19824 135.328 9.35645 135.188 9.55566C135.047 9.75488 134.977 9.98047 134.977 10.2324H132.867C132.867 9.85742 132.958 9.49414 133.14 9.14258C133.321 8.79102 133.585 8.47754 133.931 8.20215C134.276 7.92676 134.689 7.70996 135.17 7.55176C135.65 7.39355 136.189 7.31445 136.787 7.31445C137.502 7.31445 138.135 7.43457 138.686 7.6748C139.242 7.91504 139.679 8.27832 139.995 8.76465C140.317 9.24512 140.479 9.84863 140.479 10.5752V14.8027C140.479 15.2363 140.508 15.626 140.566 15.9717C140.631 16.3115 140.722 16.6074 140.839 16.8594V17H138.668C138.568 16.7715 138.489 16.4814 138.431 16.1299C138.378 15.7725 138.352 15.4268 138.352 15.0928ZM138.659 11.2168L138.677 12.5264H137.156C136.764 12.5264 136.418 12.5645 136.119 12.6406C135.82 12.7109 135.571 12.8164 135.372 12.957C135.173 13.0977 135.023 13.2676 134.924 13.4668C134.824 13.666 134.774 13.8916 134.774 14.1436C134.774 14.3955 134.833 14.627 134.95 14.8379C135.067 15.043 135.237 15.2041 135.46 15.3213C135.688 15.4385 135.964 15.4971 136.286 15.4971C136.72 15.4971 137.098 15.4092 137.42 15.2334C137.748 15.0518 138.006 14.832 138.193 14.5742C138.381 14.3105 138.48 14.0615 138.492 13.8271L139.178 14.7676C139.107 15.0078 138.987 15.2656 138.817 15.541C138.647 15.8164 138.425 16.0801 138.149 16.332C137.88 16.5781 137.555 16.7803 137.174 16.9385C136.799 17.0967 136.365 17.1758 135.873 17.1758C135.252 17.1758 134.698 17.0527 134.212 16.8066C133.726 16.5547 133.345 16.2178 133.069 15.7959C132.794 15.3682 132.656 14.8848 132.656 14.3457C132.656 13.8418 132.75 13.3965 132.938 13.0098C133.131 12.6172 133.412 12.2891 133.781 12.0254C134.156 11.7617 134.613 11.5625 135.152 11.4277C135.691 11.2871 136.307 11.2168 136.998 11.2168H138.659ZM147.053 7.49023V9.03711H141.691V7.49023H147.053ZM143.238 5.16113H145.356V14.3721C145.356 14.665 145.397 14.8906 145.479 15.0488C145.567 15.2012 145.688 15.3037 145.84 15.3564C145.992 15.4092 146.171 15.4355 146.376 15.4355C146.522 15.4355 146.663 15.4268 146.798 15.4092C146.933 15.3916 147.041 15.374 147.123 15.3564L147.132 16.9736C146.956 17.0264 146.751 17.0732 146.517 17.1143C146.288 17.1553 146.024 17.1758 145.726 17.1758C145.239 17.1758 144.809 17.0908 144.434 16.9209C144.059 16.7451 143.766 16.4609 143.555 16.0684C143.344 15.6758 143.238 15.1543 143.238 14.5039V5.16113ZM150.955 7.49023V17H148.828V7.49023H150.955ZM148.688 4.99414C148.688 4.67187 148.793 4.40527 149.004 4.19434C149.221 3.97754 149.52 3.86914 149.9 3.86914C150.275 3.86914 150.571 3.97754 150.788 4.19434C151.005 4.40527 151.113 4.67187 151.113 4.99414C151.113 5.31055 151.005 5.57422 150.788 5.78516C150.571 5.99609 150.275 6.10156 149.9 6.10156C149.52 6.10156 149.221 5.99609 149.004 5.78516C148.793 5.57422 148.688 5.31055 148.688 4.99414ZM152.871 12.3506V12.1484C152.871 11.4629 152.971 10.8271 153.17 10.2412C153.369 9.64941 153.656 9.13672 154.031 8.70312C154.412 8.26367 154.875 7.92383 155.42 7.68359C155.971 7.4375 156.592 7.31445 157.283 7.31445C157.98 7.31445 158.602 7.4375 159.146 7.68359C159.697 7.92383 160.163 8.26367 160.544 8.70312C160.925 9.13672 161.215 9.64941 161.414 10.2412C161.613 10.8271 161.713 11.4629 161.713 12.1484V12.3506C161.713 13.0361 161.613 13.6719 161.414 14.2578C161.215 14.8438 160.925 15.3564 160.544 15.7959C160.163 16.2295 159.7 16.5693 159.155 16.8154C158.61 17.0557 157.992 17.1758 157.301 17.1758C156.604 17.1758 155.979 17.0557 155.429 16.8154C154.884 16.5693 154.421 16.2295 154.04 15.7959C153.659 15.3564 153.369 14.8438 153.17 14.2578C152.971 13.6719 152.871 13.0361 152.871 12.3506ZM154.989 12.1484V12.3506C154.989 12.7783 155.033 13.1826 155.121 13.5635C155.209 13.9443 155.347 14.2783 155.534 14.5654C155.722 14.8525 155.962 15.0781 156.255 15.2422C156.548 15.4062 156.896 15.4883 157.301 15.4883C157.693 15.4883 158.033 15.4062 158.32 15.2422C158.613 15.0781 158.854 14.8525 159.041 14.5654C159.229 14.2783 159.366 13.9443 159.454 13.5635C159.548 13.1826 159.595 12.7783 159.595 12.3506V12.1484C159.595 11.7266 159.548 11.3281 159.454 10.9531C159.366 10.5723 159.226 10.2354 159.032 9.94238C158.845 9.64941 158.604 9.4209 158.312 9.25684C158.024 9.08691 157.682 9.00195 157.283 9.00195C156.885 9.00195 156.539 9.08691 156.246 9.25684C155.959 9.4209 155.722 9.64941 155.534 9.94238C155.347 10.2354 155.209 10.5723 155.121 10.9531C155.033 11.3281 154.989 11.7266 154.989 12.1484ZM165.589 9.52051V17H163.471V7.49023H165.466L165.589 9.52051ZM165.211 11.8936L164.525 11.8848C164.531 11.2109 164.625 10.5928 164.807 10.0303C164.994 9.46777 165.252 8.98438 165.58 8.58008C165.914 8.17578 166.312 7.86523 166.775 7.64844C167.238 7.42578 167.754 7.31445 168.322 7.31445C168.779 7.31445 169.192 7.37891 169.562 7.50781C169.937 7.63086 170.256 7.83301 170.52 8.11426C170.789 8.39551 170.994 8.76172 171.135 9.21289C171.275 9.6582 171.346 10.2061 171.346 10.8564V17H169.219V10.8477C169.219 10.3906 169.151 10.0303 169.017 9.7666C168.888 9.49707 168.697 9.30664 168.445 9.19531C168.199 9.07812 167.892 9.01953 167.522 9.01953C167.159 9.01953 166.834 9.0957 166.547 9.24805C166.26 9.40039 166.017 9.6084 165.817 9.87207C165.624 10.1357 165.475 10.4404 165.369 10.7861C165.264 11.1318 165.211 11.501 165.211 11.8936ZM54.1611 30.2275H50.8301V28.4785H54.1611C54.7412 28.4785 55.21 28.3848 55.5674 28.1973C55.9248 28.0098 56.1855 27.752 56.3496 27.4238C56.5195 27.0898 56.6045 26.709 56.6045 26.2812C56.6045 25.877 56.5195 25.499 56.3496 25.1475C56.1855 24.79 55.9248 24.5029 55.5674 24.2861C55.21 24.0693 54.7412 23.9609 54.1611 23.9609H51.5068V35H49.3008V22.2031H54.1611C55.1514 22.2031 55.9922 22.3789 56.6836 22.7305C57.3809 23.0762 57.9111 23.5566 58.2744 24.1719C58.6377 24.7812 58.8193 25.4785 58.8193 26.2637C58.8193 27.0898 58.6377 27.7988 58.2744 28.3906C57.9111 28.9824 57.3809 29.4365 56.6836 29.7529C55.9922 30.0693 55.1514 30.2275 54.1611 30.2275ZM62.8535 21.5V35H60.7266V21.5H62.8535ZM70.8955 32.7588V25.4902H73.0225V35H71.0186L70.8955 32.7588ZM71.1943 30.7812L71.9062 30.7637C71.9062 31.4023 71.8359 31.9912 71.6953 32.5303C71.5547 33.0635 71.3379 33.5293 71.0449 33.9277C70.752 34.3203 70.377 34.6279 69.9199 34.8506C69.4629 35.0674 68.915 35.1758 68.2764 35.1758C67.8135 35.1758 67.3887 35.1084 67.002 34.9736C66.6152 34.8389 66.2812 34.6309 66 34.3496C65.7246 34.0684 65.5107 33.7021 65.3584 33.251C65.2061 32.7998 65.1299 32.2607 65.1299 31.6338V25.4902H67.248V31.6514C67.248 31.9971 67.2891 32.2871 67.3711 32.5215C67.4531 32.75 67.5645 32.9346 67.7051 33.0752C67.8457 33.2158 68.0098 33.3154 68.1973 33.374C68.3848 33.4326 68.584 33.4619 68.7949 33.4619C69.3984 33.4619 69.873 33.3447 70.2188 33.1104C70.5703 32.8701 70.8193 32.5479 70.9658 32.1436C71.1182 31.7393 71.1943 31.2852 71.1943 30.7812ZM80.5283 32.4248C80.5283 32.2139 80.4756 32.0234 80.3701 31.8535C80.2646 31.6777 80.0625 31.5195 79.7637 31.3789C79.4707 31.2383 79.0371 31.1094 78.4629 30.9922C77.959 30.8809 77.4961 30.749 77.0742 30.5967C76.6582 30.4385 76.3008 30.248 76.002 30.0254C75.7031 29.8027 75.4717 29.5391 75.3076 29.2344C75.1436 28.9297 75.0615 28.5781 75.0615 28.1797C75.0615 27.793 75.1465 27.4268 75.3164 27.0811C75.4863 26.7354 75.7295 26.4307 76.0459 26.167C76.3623 25.9033 76.7461 25.6953 77.1973 25.543C77.6543 25.3906 78.1641 25.3145 78.7266 25.3145C79.5234 25.3145 80.2061 25.4492 80.7744 25.7188C81.3486 25.9824 81.7881 26.3428 82.0928 26.7998C82.3975 27.251 82.5498 27.7607 82.5498 28.3291H80.4316C80.4316 28.0771 80.3672 27.8428 80.2383 27.626C80.1152 27.4033 79.9277 27.2246 79.6758 27.0898C79.4238 26.9492 79.1074 26.8789 78.7266 26.8789C78.3633 26.8789 78.0615 26.9375 77.8213 27.0547C77.5869 27.166 77.4111 27.3125 77.2939 27.4941C77.1826 27.6758 77.127 27.875 77.127 28.0918C77.127 28.25 77.1562 28.3936 77.2148 28.5225C77.2793 28.6455 77.3848 28.7598 77.5312 28.8652C77.6777 28.9648 77.877 29.0586 78.1289 29.1465C78.3867 29.2344 78.709 29.3193 79.0957 29.4014C79.8223 29.5537 80.4463 29.75 80.9678 29.9902C81.4951 30.2246 81.8994 30.5293 82.1807 30.9043C82.4619 31.2734 82.6025 31.7422 82.6025 32.3105C82.6025 32.7324 82.5117 33.1191 82.3301 33.4707C82.1543 33.8164 81.8965 34.1182 81.5566 34.376C81.2168 34.6279 80.8096 34.8242 80.335 34.9648C79.8662 35.1055 79.3389 35.1758 78.7529 35.1758C77.8916 35.1758 77.1621 35.0234 76.5645 34.7188C75.9668 34.4082 75.5127 34.0127 75.2021 33.5322C74.8975 33.0459 74.7451 32.542 74.7451 32.0205H76.793C76.8164 32.4131 76.9248 32.7266 77.1182 32.9609C77.3174 33.1895 77.5635 33.3564 77.8564 33.4619C78.1553 33.5615 78.4629 33.6113 78.7793 33.6113C79.1602 33.6113 79.4795 33.5615 79.7373 33.4619C79.9951 33.3564 80.1914 33.2158 80.3262 33.04C80.4609 32.8584 80.5283 32.6533 80.5283 32.4248Z" fill="#BF5700"/>
</svg>
